<svg width="139.000000" height="25.000000" viewBox="0 0 139 25" fill="none" xmlns="http://www.w3.org/2000/svg" xmlns:xlink="http://www.w3.org/1999/xlink">
	<desc>
			Created with Pixso.
	</desc>
	<defs>
		<clipPath id="clip2_314">
			<rect id="dress (1) 1" width="25.000000" height="25.000000" fill="white" fill-opacity="0"/>
		</clipPath>
	</defs>
	<rect id="dress (1) 1" width="25.000000" height="25.000000" fill="#FFFFFF" fill-opacity="0"/>
	<g clip-path="url(#clip2_314)">
		<path id="Vector" d="M21.5169 22.6493L21.1587 20.9776C20.4207 17.5332 19.0683 14.2964 17.1387 11.3529L17.1387 8.64058C18.0275 7.97177 18.6035 6.9084 18.6035 5.71289L18.6035 4.24805C18.6035 3.84355 18.2756 3.51562 17.8711 3.51562L17.1387 3.51562L17.1387 0.732422C17.1387 0.327927 16.8107 0 16.4062 0C16.0018 0 15.6738 0.327927 15.6738 0.732422L15.6738 3.52339C14.3584 3.6001 13.2059 4.29208 12.5 5.31528C11.7941 4.29208 10.6416 3.6001 9.32617 3.52339L9.32617 0.732422C9.32617 0.327927 8.99825 0 8.59375 0C8.18925 0 7.86133 0.327927 7.86133 0.732422L7.86133 3.51562L7.12891 3.51562C6.72441 3.51562 6.39648 3.84355 6.39648 4.24805L6.39648 5.71289C6.39648 6.9084 6.97246 7.97177 7.86133 8.64058L7.86133 11.3529C5.93173 14.2964 4.57935 17.5332 3.84126 20.9776L3.48305 22.6493C3.40649 23.0066 3.60507 23.3658 3.94853 23.4909C6.6974 24.4923 9.57451 25 12.5 25C15.4255 25 18.3026 24.4923 21.0515 23.4909C21.3949 23.3658 21.5935 23.0067 21.5169 22.6493ZM15.918 4.98047L17.1387 4.98047L17.1387 5.71289C17.1387 6.92447 16.153 7.91016 14.9414 7.91016L13.2324 7.91016L13.2324 7.66602C13.2324 6.18521 14.4372 4.98047 15.918 4.98047ZM7.86133 4.98047L9.08203 4.98047C10.5628 4.98047 11.7676 6.18521 11.7676 7.66602L11.7676 7.91016L10.0586 7.91016C8.84702 7.91016 7.86133 6.92447 7.86133 5.71289L7.86133 4.98047ZM10.0586 9.375L14.9414 9.375C15.1922 9.375 15.4371 9.34956 15.6738 9.30132L15.6738 10.8398L9.32617 10.8398L9.32617 9.30132C9.56288 9.34956 9.80782 9.375 10.0586 9.375ZM12.5 23.5352C9.9585 23.5352 7.45561 23.128 5.05074 22.3244L5.27353 21.2846C5.96118 18.0757 7.21054 15.0566 8.98901 12.3047L16.0109 12.3047C17.7894 15.0566 19.0388 18.0757 19.7264 21.2845L19.9492 22.3244C17.5444 23.128 15.0415 23.5352 12.5 23.5352Z" fill="#000000" fill-opacity="1.000000" fill-rule="nonzero"/>
	</g>
	<path id="Womazing" d="M41.52 6.852L42.88 6.852L44.384 10.804L45.904 6.852L47.264 6.852L45.296 11.796L47.248 16.484L51.088 6.788L52.656 6.788L47.904 18.148L46.656 18.148L44.4 12.788L42.128 18.148L40.88 18.148L36.144 6.788L37.696 6.788L41.552 16.484L43.488 11.796L41.52 6.852ZM59.9274 18.228C59.1274 18.228 58.402 18.068 57.7514 17.748C57.1007 17.428 56.5354 16.996 56.0554 16.452C55.586 15.8973 55.2234 15.2787 54.9674 14.596C54.7114 13.9027 54.5834 13.1933 54.5834 12.468C54.5834 11.7107 54.7167 10.9907 54.9834 10.308C55.2607 9.61467 55.6394 9.00133 56.1194 8.468C56.61 7.924 57.1807 7.49733 57.8314 7.188C58.482 6.868 59.1914 6.708 59.9594 6.708C60.7594 6.708 61.4847 6.87333 62.1354 7.204C62.786 7.53467 63.346 7.97733 63.8154 8.532C64.2847 9.08667 64.6474 9.70533 64.9034 10.388C65.1594 11.0707 65.2874 11.7693 65.2874 12.484C65.2874 13.2413 65.154 13.9667 64.8874 14.66C64.6207 15.3427 64.242 15.956 63.7514 16.5C63.2714 17.0333 62.706 17.4547 62.0554 17.764C61.4047 18.0733 60.6954 18.228 59.9274 18.228ZM56.0394 12.468C56.0394 13.044 56.13 13.604 56.3114 14.148C56.5034 14.6813 56.77 15.156 57.1114 15.572C57.4527 15.988 57.8634 16.3187 58.3434 16.564C58.8234 16.8093 59.3567 16.932 59.9434 16.932C60.5514 16.932 61.0954 16.804 61.5754 16.548C62.0554 16.292 62.4607 15.9507 62.7914 15.524C63.1327 15.0973 63.3887 14.6173 63.5594 14.084C63.7407 13.5507 63.8314 13.012 63.8314 12.468C63.8314 11.892 63.7354 11.3373 63.5434 10.804C63.362 10.2707 63.0954 9.796 62.7434 9.38C62.402 8.95333 61.9914 8.62267 61.5114 8.388C61.042 8.14267 60.5194 8.02 59.9434 8.02C59.3354 8.02 58.7914 8.148 58.3114 8.404C57.8314 8.64933 57.4207 8.98533 57.0794 9.412C56.7487 9.83867 56.4927 10.3187 56.3114 10.852C56.13 11.3747 56.0394 11.9133 56.0394 12.468ZM78.7121 18.148L78.7121 9.476L74.9681 16.148L74.0881 16.148L70.3281 9.476L70.3281 18.148L68.8881 18.148L68.8881 6.788L70.4081 6.788L74.5201 14.164L78.6481 6.788L80.1521 6.788L80.1521 18.148L78.7121 18.148ZM87.9285 6.788L89.1445 6.788L93.7845 18.148L92.2485 18.148L90.9045 14.82L86.1365 14.82L84.8085 18.148L83.2725 18.148L87.9285 6.788ZM90.5845 13.7L88.5365 8.452L86.4245 13.7L90.5845 13.7ZM96.0526 17.028L103.381 8.068L96.1966 8.068L96.1966 6.788L105.061 6.788L105.061 7.908L97.8606 16.868L105.061 16.868L105.061 18.148L96.0526 18.148L96.0526 17.028ZM108.594 18.148L108.594 6.788L110.034 6.788L110.034 18.148L108.594 18.148ZM115.791 9.444L115.791 18.148L114.351 18.148L114.351 6.788L115.567 6.788L122.511 15.668L122.511 6.804L123.951 6.804L123.951 18.148L122.639 18.148L115.791 9.444ZM132.823 18.228C132.076 18.228 131.378 18.068 130.727 17.748C130.087 17.4173 129.527 16.98 129.047 16.436C128.567 15.8813 128.194 15.2627 127.927 14.58C127.66 13.8867 127.527 13.172 127.527 12.436C127.527 11.668 127.66 10.9427 127.927 10.26C128.194 9.56667 128.562 8.95333 129.031 8.42C129.511 7.88667 130.071 7.47067 130.711 7.172C131.362 6.86267 132.066 6.708 132.823 6.708C133.922 6.708 134.828 6.93733 135.543 7.396C136.258 7.85467 136.796 8.452 137.159 9.188L136.055 9.956C135.724 9.29467 135.271 8.804 134.695 8.484C134.119 8.164 133.484 8.004 132.791 8.004C132.215 8.004 131.692 8.12667 131.223 8.372C130.754 8.61733 130.348 8.95333 130.007 9.38C129.676 9.796 129.42 10.2707 129.239 10.804C129.068 11.3373 128.983 11.892 128.983 12.468C128.983 13.2787 129.154 14.0253 129.495 14.708C129.847 15.38 130.322 15.9187 130.919 16.324C131.516 16.7293 132.188 16.932 132.935 16.932C133.543 16.932 134.124 16.788 134.679 16.5C135.244 16.2013 135.778 15.748 136.279 15.14L136.279 13.572L133.831 13.572L133.831 12.484L137.495 12.484L137.495 18.148L136.279 18.148L136.279 16.612C135.298 17.6893 134.146 18.228 132.823 18.228Z" fill="#000000" fill-opacity="1.000000" fill-rule="evenodd"/>
</svg>
