<svg width="61.000000" height="61.000000" viewBox="0 0 61 61" fill="none" xmlns="http://www.w3.org/2000/svg" xmlns:xlink="http://www.w3.org/1999/xlink">
	<desc>
			Created with Pixso.
	</desc>
	<defs>
		<clipPath id="clip8_523">
			<rect id="quality 1" width="61.000000" height="61.000000" fill="white" fill-opacity="0"/>
		</clipPath>
	</defs>
	<rect id="quality 1" width="61.000000" height="61.000000" fill="#FFFFFF" fill-opacity="0"/>
	<g clip-path="url(#clip8_523)">
		<path id="Vector" d="M37.3994 24.8339L28.2341 33.4906L23.8355 28.9653C23.3479 28.4634 22.5449 28.4519 22.0434 28.9396C21.5413 29.4277 21.5299 30.2301 22.0175 30.7322L27.2931 36.1478C27.7833 36.6409 28.5753 36.6578 29.0858 36.1855L39.1667 26.6771C39.4115 26.4463 39.5546 26.1274 39.564 25.7913C39.5734 25.4551 39.4488 25.1288 39.2174 24.8845C38.7268 24.3745 37.9178 24.3522 37.3994 24.8339Z" fill="#000000" fill-opacity="1.000000" fill-rule="nonzero"/>
		<path id="Vector" d="M30.5983 11.5112C20.1236 11.5112 11.6064 20.0284 11.6064 30.5032C11.6064 40.9785 20.1236 49.4957 30.5983 49.4957C41.0736 49.4957 49.5908 40.9785 49.5908 30.5032C49.5908 20.0284 41.0736 11.5112 30.5983 11.5112ZM30.5983 46.9532C21.522 46.9532 14.1488 39.5671 14.1488 30.5032C14.1488 21.4392 21.522 14.0537 30.5983 14.0537C39.6837 14.0537 47.0484 21.4183 47.0484 30.5032C47.0484 39.588 39.6837 46.9532 30.5983 46.9532Z" fill="#000000" fill-opacity="1.000000" fill-rule="nonzero"/>
		<path id="Vector" d="M56.7351 23.5115L57.1547 15.9729C57.184 15.4669 56.9089 14.9917 56.4555 14.7653L49.7433 11.3712L46.3492 4.65894C46.1183 4.20959 45.6461 3.93591 45.1415 3.95984L37.5901 4.36694L31.2975 0.209717C30.8735 -0.0699463 30.3237 -0.0699463 29.8992 0.209717L23.6066 4.36694L16.0686 3.94739C15.5621 3.9176 15.0873 4.19275 14.8609 4.64661L11.4663 11.3588L4.75461 14.7528C4.3047 14.9833 4.0316 15.4556 4.05544 15.9606L4.47453 23.499L0.317719 29.7916C0.0381317 30.2157 0.0381317 30.7654 0.317719 31.1899L4.46213 37.495L4.04251 45.0334C4.01321 45.5394 4.28783 46.0146 4.7417 46.2411L11.4539 49.6353L14.848 56.3474C15.0784 56.7974 15.5506 57.0704 16.0557 57.0466L23.5942 56.627L29.8867 60.7838C30.3083 61.0724 30.8635 61.0724 31.2851 60.7838L37.5777 56.627L45.1162 57.0466C45.6222 57.0759 46.0969 56.8008 46.3239 56.3474L49.718 49.6353L56.4302 46.2411C56.8796 46.0103 57.1532 45.5385 57.1293 45.0334L56.7097 37.495L60.8666 31.2024C61.1461 30.7783 61.1461 30.2281 60.8666 29.8041L56.7351 23.5115ZM54.3704 36.4526C54.2154 36.6801 54.1434 36.9537 54.1673 37.2283L54.5611 44.3596L48.2178 47.563C47.976 47.6842 47.7798 47.8809 47.6587 48.1227L44.4548 54.4659L37.3235 54.0721C37.0503 54.0621 36.7807 54.1327 36.5478 54.2753L30.5983 58.2036L24.6494 54.2753C24.4428 54.1356 24.1995 54.0602 23.9502 54.0592L23.8866 54.0592L16.7548 54.4535L13.5514 48.1097C13.4303 47.8679 13.2341 47.6718 12.9918 47.5507L6.63564 44.3596L7.02991 37.2283C7.03984 36.9552 6.96884 36.6855 6.82632 36.4526L2.89841 30.5032L6.82632 24.5537C6.98175 24.3268 7.05374 24.0527 7.02991 23.7786L6.63564 16.6469L12.9794 13.4434C13.2212 13.3223 13.4174 13.1261 13.5385 12.8843L16.7419 6.54053L23.8737 6.93481C24.1463 6.94421 24.416 6.87366 24.6494 6.7312L30.5983 2.80334L36.5478 6.7312C36.7752 6.8866 37.0493 6.95862 37.3235 6.93481L44.4548 6.54053L47.6587 12.8843C47.7798 13.1261 47.976 13.3223 48.2178 13.4434L54.5611 16.6469L54.1673 23.7786C54.1573 24.0513 54.2283 24.3208 54.3704 24.5537L58.2988 30.5032L54.3704 36.4526Z" fill="#000000" fill-opacity="1.000000" fill-rule="nonzero"/>
	</g>
</svg>
