<svg width="56.043762" height="55.645386" viewBox="0 0 56.0438 55.6454" fill="none" xmlns="http://www.w3.org/2000/svg" xmlns:xlink="http://www.w3.org/1999/xlink">
	<desc>
			Created with Pixso.
	</desc>
	<defs/>
	<path id="Vector" d="M20.097 39.969C19.761 39.969 19.425 39.8403 19.1677 39.5857L1.53564 21.951C-0.511902 19.9034 -0.511902 16.5724 1.53564 14.5249C3.58838 12.4774 6.91687 12.4827 8.95911 14.5249L24.738 30.3037C25.2499 30.8157 25.2499 31.6477 24.738 32.1597C24.2261 32.6715 23.394 32.6715 22.8821 32.1597L7.10327 16.3807C6.08478 15.3623 4.42047 15.3596 3.39148 16.3807C2.89801 16.8768 2.62238 17.5358 2.62238 18.2366C2.62238 18.9401 2.89539 19.599 3.39148 20.0951L21.0262 37.7273C21.5381 38.2391 21.5381 39.0713 21.0262 39.5831C20.769 39.8403 20.433 39.969 20.097 39.969Z" fill="#000000" fill-opacity="1.000000" fill-rule="nonzero"/>
	<path id="Vector" d="M29.379 26.9751C29.043 26.9751 28.707 26.8464 28.4497 26.5918L10.8176 8.95703C9.7912 7.93066 8.12958 7.93066 7.10321 8.95703C6.60974 9.45312 6.33411 10.1121 6.33411 10.8129C6.33411 11.5138 6.60712 12.1727 7.10321 12.6688L8.95911 14.5247C9.47101 15.0365 9.47101 15.8687 8.95911 16.3805C8.4472 16.8925 7.61511 16.8925 7.10321 16.3805L5.24738 14.5247C4.25513 13.5325 3.70911 12.2147 3.70911 10.8129C3.70911 9.41113 4.25513 8.09338 5.24738 7.1012C7.22925 5.11926 10.6863 5.11401 12.6735 7.1012L30.3056 24.736C30.8174 25.2478 30.8174 26.08 30.3056 26.5918C30.0483 26.849 29.715 26.9751 29.379 26.9751Z" fill="#000000" fill-opacity="1.000000" fill-rule="nonzero"/>
	<path id="Vector" d="M34.9493 21.4077C34.6133 21.4077 34.2773 21.2791 34.02 21.0244L20.097 7.10144C19.0706 6.07507 17.4116 6.07507 16.3853 7.10144C15.3615 8.12524 15.3615 9.78943 16.3853 10.8132C16.8972 11.3251 16.8972 12.1572 16.3853 12.6691C15.8734 13.1809 15.0413 13.1809 14.5294 12.6691C12.4845 10.6241 12.4845 7.29041 14.5294 5.24561C16.5743 3.20068 19.908 3.20068 21.9529 5.24561L35.8759 19.1686C36.3878 19.6804 36.3878 20.5126 35.8759 21.0244C35.6213 21.2791 35.2853 21.4077 34.9493 21.4077Z" fill="#000000" fill-opacity="1.000000" fill-rule="nonzero"/>
	<path id="Vector" d="M33.516 55.6454C32.6313 55.6454 31.7363 55.5457 30.849 55.3435L8.74652 50.2773C7.79102 50.0778 6.90112 49.5895 6.17664 48.865C5.18439 47.8728 4.63574 46.5524 4.63574 45.1533C4.63574 43.7516 5.18439 42.4338 6.17664 41.4415C6.85913 40.759 7.6886 40.2892 8.58374 40.0713C8.60999 40.0608 8.63623 40.0555 8.66248 40.0476L19.7925 37.3781C20.4986 37.2021 21.2074 37.6458 21.3754 38.3492C21.5434 39.0554 21.1076 39.7615 20.4041 39.9321L9.35022 42.5834C9.3161 42.5939 9.28198 42.6044 9.24524 42.6123C8.80426 42.7094 8.38422 42.9482 8.03247 43.3C7.53638 43.7961 7.26074 44.4551 7.26074 45.1559C7.26074 45.8568 7.53375 46.5156 8.03247 47.0118C8.38159 47.361 8.81476 47.6077 9.25049 47.7048C9.26886 47.7074 9.28461 47.7101 9.30035 47.7153L31.437 52.7894C34.5424 53.5007 37.737 52.582 39.9866 50.3298L50.7281 39.5857C52.4633 37.8506 53.4188 35.5432 53.4188 33.0887C53.4188 30.6344 52.4633 28.3297 50.7281 26.5919L27.5258 3.38953C26.4994 2.36316 24.8404 2.36316 23.814 3.38953C22.7902 4.41333 22.7902 6.07751 23.814 7.10132C24.3259 7.61316 24.3259 8.44531 23.814 8.95715C23.3021 9.46899 22.47 9.46899 21.9581 8.95715C19.9133 6.91223 19.9133 3.57849 21.9581 1.53369C24.003 -0.51123 27.3367 -0.51123 29.3816 1.53369L52.584 24.7361C54.8179 26.9673 56.0438 29.9309 56.0438 33.0887C56.0438 36.2467 54.8152 39.2103 52.584 41.4415L41.8425 52.1857C39.5903 54.4301 36.6083 55.6454 33.516 55.6454Z" fill="#000000" fill-opacity="1.000000" fill-rule="nonzero"/>
</svg>
