<svg width="24.000000" height="24.000000" viewBox="0 0 24 24" fill="none" xmlns="http://www.w3.org/2000/svg" xmlns:xlink="http://www.w3.org/1999/xlink">
	<defs>
		<clipPath id="clip4_500">
			<rect id="shopping-bags 1" width="24.000000" height="24.000000" fill="white" fill-opacity="0"/>
		</clipPath>
	</defs>
	<rect id="shopping-bags 1" width="24.000000" height="24.000000" fill="#FFFFFF" fill-opacity="0"/>
	<g clip-path="url(#clip4_500)">
		<path id="Vector" d="M23.8454 8.2243C23.7281 8.10907 23.5642 8.05443 23.4012 8.07625L17.0343 8.07625L17.0343 5.26295C17.0343 2.48259 14.7804 0.228699 12.0001 0.228699C9.21973 0.228699 6.96582 2.48259 6.96582 5.26295L6.96582 8.07625L0.598877 8.07625C0.421143 8.07625 0.24353 8.07625 0.154663 8.2243C0.0352783 8.33902 -0.0200806 8.5051 0.0065918 8.66852L2.2276 20.81C2.5379 22.5037 4.00037 23.7431 5.72198 23.7713L18.278 23.7713C20.0046 23.7289 21.464 22.4797 21.7724 20.7804L23.9934 8.66852C24.0201 8.5051 23.9647 8.33902 23.8454 8.2243ZM8.15027 5.26295C8.15027 3.13681 9.8739 1.41324 12 1.41324C14.1262 1.41324 15.8497 3.13681 15.8497 5.26295L15.8497 8.07625L8.15027 8.07625L8.15027 5.26295ZM20.5879 20.6323C20.3884 21.7547 19.4179 22.5759 18.278 22.5868L5.72198 22.5868C4.58209 22.5759 3.61163 21.7547 3.41217 20.6323L1.30957 9.26079L22.6904 9.26079L20.5879 20.6323Z" fill="#000000" fill-opacity="1.000000" fill-rule="nonzero"/>
		<path id="Vector" d="M16.442 15.0354C16.7691 15.0354 17.0342 14.7702 17.0342 14.4431L17.0342 12.6663C17.0342 12.3392 16.7691 12.074 16.442 12.074C16.1149 12.074 15.8497 12.3392 15.8497 12.6663L15.8497 14.4431C15.8497 14.7702 16.1149 15.0354 16.442 15.0354Z" fill="#000000" fill-opacity="1.000000" fill-rule="nonzero"/>
		<path id="Vector" d="M7.55798 15.0354C7.88507 15.0354 8.15021 14.7702 8.15021 14.4431L8.15021 12.6663C8.15021 12.3392 7.88507 12.074 7.55798 12.074C7.23083 12.074 6.9657 12.3392 6.9657 12.6663L6.9657 14.4431C6.9657 14.7702 7.23083 15.0354 7.55798 15.0354Z" fill="#000000" fill-opacity="1.000000" fill-rule="nonzero"/>
	</g>
</svg>
