<svg width="60.518555" height="61.798706" viewBox="0 0 60.5186 61.7987" fill="none" xmlns="http://www.w3.org/2000/svg" xmlns:xlink="http://www.w3.org/1999/xlink">
	<desc>
			Created with Pixso.
	</desc>
	<defs/>
	<path id="Vector" d="M56.5446 40.6477L50.6491 36.4552C51.6392 32.8146 51.6336 28.9747 50.6328 25.337L56.5479 21.1965L51.8256 13.026L45.2476 16.0355C42.5888 13.3575 39.2597 11.4427 35.6081 10.491L34.9808 3.29871L25.5363 3.29871L24.9091 10.491C21.2582 11.4441 17.9302 13.36 15.2728 16.0387L8.69159 13.0293L3.97258 21.1997L9.88759 25.3402C8.88632 28.9767 8.87959 32.8153 9.86809 36.4552L3.97258 40.6477L8.69159 48.7793L15.2728 45.7665C17.9306 48.4441 21.2585 50.3589 24.9091 51.311L25.5363 58.5033L34.9808 58.5033L35.6081 51.311C39.2586 50.3588 42.5865 48.444 45.2443 45.7665L51.8256 48.7793L56.5479 40.651L56.5446 40.6477ZM36.7748 0C37.1932 -0.000488281 37.5956 0.160522 37.8983 0.449219C38.2009 0.738037 38.3806 1.13232 38.3998 1.55029L38.9783 8.16406C41.3808 9.07959 43.6221 10.3719 45.6181 11.9926L51.6306 9.18774C52.002 8.9967 52.4326 8.95593 52.8332 9.07397C53.2338 9.19189 53.5736 9.45959 53.7821 9.82153L60.2983 21.099C60.5077 21.4604 60.5698 21.8887 60.4718 22.2948C60.3737 22.7009 60.1231 23.0536 59.7719 23.2798L54.3313 27.0887C54.7473 29.6823 54.7343 32.266 54.3346 34.7555L59.7719 38.558C60.124 38.7842 60.3752 39.1376 60.4733 39.5443C60.5714 39.9512 60.5087 40.3802 60.2983 40.7419L53.7821 51.9773C53.5736 52.3391 53.2338 52.6068 52.8332 52.7249C52.4326 52.8428 52.002 52.8021 51.6306 52.611L45.6181 49.8063C43.6616 51.3987 41.4321 52.6987 38.9783 53.6379L38.3998 60.2517C38.3798 60.6691 38.1998 61.0626 37.8972 61.3507C37.5945 61.6388 37.1926 61.7992 36.7748 61.7987L23.7423 61.7987C23.3245 61.7992 22.9226 61.6388 22.62 61.3507C22.3174 61.0626 22.1374 60.6691 22.1173 60.2517L21.5388 53.6379C19.1362 52.7213 16.8949 51.4279 14.8991 49.8063L8.88658 52.611C8.51529 52.8033 8.08414 52.8451 7.68282 52.7277C7.28149 52.6102 6.94089 52.3427 6.73184 51.9805L0.218826 40.7388C0.00946045 40.3772 -0.0526581 39.949 0.0453949 39.543C0.143433 39.1368 0.394089 38.7842 0.745331 38.558L6.18259 34.7522C5.77541 32.2129 5.77541 29.6249 6.18259 27.0854L0.748581 23.2798C0.398209 23.0537 0.148132 22.7015 0.0501404 22.2963C-0.0478668 21.8909 0.0137024 21.4634 0.222076 21.1023L6.72859 9.82153C6.9371 9.45874 7.27748 9.19055 7.67885 9.07239C8.08022 8.95435 8.51166 8.99573 8.88333 9.18774L14.8958 11.9926C16.8918 10.3719 19.1331 9.07959 21.5356 8.16406L22.1141 1.55029C22.1333 1.13232 22.313 0.738037 22.6157 0.449219C22.9184 0.160522 23.3208 -0.000488281 23.7391 0L36.7716 0L36.7748 0ZM30.2586 19.5487C33.2754 19.5487 36.1687 20.7472 38.3019 22.8804C40.4352 25.0137 41.6336 27.9069 41.6336 30.9237C41.6336 33.9406 40.4352 36.8339 38.3019 38.967C36.1687 41.1003 33.2754 42.2987 30.2586 42.2987C27.2417 42.2987 24.3485 41.1003 22.2152 38.967C20.082 36.8339 18.8836 33.9406 18.8836 30.9237C18.8836 27.9069 20.082 25.0137 22.2152 22.8804C24.3485 20.7472 27.2417 19.5487 30.2586 19.5487ZM30.2586 22.7987C28.1037 22.7987 26.0371 23.6548 24.5133 25.1785C22.9896 26.7023 22.1336 28.7689 22.1336 30.9237C22.1336 33.0786 22.9896 35.1453 24.5133 36.6689C26.0371 38.1927 28.1037 39.0487 30.2586 39.0487C32.4135 39.0487 34.4801 38.1927 36.0038 36.6689C37.5276 35.1453 38.3836 33.0786 38.3836 30.9237C38.3836 28.7689 37.5276 26.7023 36.0038 25.1785C34.4801 23.6548 32.4135 22.7987 30.2586 22.7987Z" fill="#000000" fill-opacity="1.000000" fill-rule="nonzero"/>
</svg>
